#!OML:ASF H:\GeneralSubjects\Female5\Project 1\Capture day 1\Session 1\Female5.ASF
:FULLY-SPECIFIED
:DEGREES
558
root -12.7528 16.0921 2.15702 113.28 -85.5334 -103.047
lowerback 4.17641 2.9079 -1.25712
upperback -12.0305 3.70977 2.77518
thorax -16.0215 1.94326 3.21526
lowerneck -20.2288 -5.18711 -5.58247
upperneck 24.3556 -4.90313 -2.99271
head 11.3663 -3.2284 -0.959111
rclavicle 3.31473e-014 5.52621e-014
rhumerus -22.0731 28.3413 -73.0057
rradius 48.2606
rwrist 16.2322
rhand -21.4161 -22.5437
rfingers 7.12502
rthumb 4.9726 -412.465
lclavicle 3.31473e-014 5.52621e-014
lhumerus -53.7713 7.27375 67.4163
lradius 38.4733
lwrist 1.43228
lhand -23.5938 38.1275
lfingers 7.12502
lthumb 2.86968 428.088
rfemur 16.5251 3.06001 30.6346
rtibia 9.51088
rfoot -16.777 -19.7926
rtoes 6.83845
lfemur -26.9791 -20.7084 -19.9782
ltibia 15.1255
lfoot -10.9436 2.18384
ltoes -12.6366
559
root -12.6918 16.0864 2.15778 123.119 -85.4494 -112.911
lowerback 4.25916 3.0233 -1.05474
upperback -12.0458 3.87469 2.64299
thorax -16.0772 1.98258 2.91977
lowerneck -20.2576 -4.97847 -5.14634
upperneck 24.7463 -4.71853 -3.13289
head 11.499 -3.13463 -1.06356
rclavicle -1.03368e-014 8.34896e-015
rhumerus -24.6821 28.4422 -74.8539
rradius 48.0156
rwrist 16.4682
rhand -20.9671 -22.01
rfingers 7.12502
rthumb 5.40608 -411.921
lclavicle -1.03368e-014 8.34896e-015
lhumerus -53.9192 8.33125 66.177
lradius 35.8705
lwrist 0.0421761
lhand -24.1383 37.0425
lfingers 7.12502
lthumb 2.34383 427.009
rfemur 16.5245 3.15519 30.486
rtibia 9.30361
rfoot -17.71 -19.5653
rtoes 4.7471
lfemur -26.9494 -20.7795 -19.8946
ltibia 14.8081
lfoot -11.6686 2.33958
ltoes -12.6021
560
root -12.6237 16.0802 2.15477 133.149 -85.2078 -122.98
lowerback 4.36124 3.15701 -0.857819
upperback -12.038 4.06067 2.46192
thorax -16.1113 2.0286 2.567
lowerneck -20.3923 -4.72972 -4.69333
upperneck 25.1534 -4.51731 -3.113
head 11.6634 -3.00879 -1.11304
rclavicle -6.31141e-015 -1.80894e-014
rhumerus -27.188 28.0473 -76.6987
rradius 47.7958
rwrist 16.3335
rhand -20.6332 -21.7522
rfingers 7.12502
rthumb 5.72852 -411.655
lclavicle -6.31141e-015 -1.80894e-014
lhumerus -53.6929 9.95455 64.4531
lradius 32.8379
lwrist -2.49179
lhand -25.1262 35.1288
lfingers 7.12502
lthumb 1.38964 425.104
rfemur 16.5181 3.36442 30.3927
rtibia 9.0233
rfoot -18.7273 -20.0047
rtoes 2.27604
lfemur -26.9008 -20.4202 -19.9718
ltibia 14.562
lfoot -12.0513 2.35815
ltoes -12.288
561
root -12.5462 16.0726 2.14895 141.678 -84.7849 -131.553
lowerback 4.51036 3.24807 -0.676713
upperback -12.0329 4.19448 2.34812
thorax -16.1829 2.0574 2.30678
lowerneck -20.6214 -4.37512 -4.10794
upperneck 25.55 -4.1872 -3.15384
head 11.8389 -2.81867 -1.18809
rclavicle -3.77691e-015 -1.39149e-014
rhumerus -29.5921 27.8731 -78.4634
rradius 47.6218
rwrist 15.5449
rhand -20.8593 -22.0381
rfingers 7.12502
rthumb 5.51022 -411.946
lclavicle -3.77691e-015 -1.39149e-014
lhumerus -54.1099 10.4456 63.6926
lradius 31.5576
lwrist -3.7385
lhand -25.9759 34.644
lfingers 7.12502
lthumb 0.568988 424.623
rfemur 16.6926 4.1053 30.6843
rtibia 8.43493
rfoot -20.6948 -20.868
rtoes 1.4316
lfemur -26.9609 -19.7719 -20.0776
ltibia 14.5028
lfoot -12.2672 2.41005
ltoes -12.1025
562
root -12.4626 16.063 2.14161 148.871 -84.2434 -138.793
lowerback 4.59653 3.32969 -0.448828
upperback -12.0106 4.31703 2.20468
thorax -16.1816 2.07261 1.99191
lowerneck -20.8955 -4.05223 -3.5252
upperneck 25.9519 -3.92176 -3.12621
head 12.0307 -2.64687 -1.24889
rclavicle -1.68967e-014 -6.75868e-015
rhumerus -31.8954 27.6778 -80.147
rradius 47.4593
rwrist 14.425
rhand -21.3821 -22.3976
rfingers 7.12502
rthumb 5.0054 -412.319
lclavicle -1.68967e-014 -6.75868e-015
lhumerus -54.4097 11.0706 62.7722
lradius 30.4636
lwrist -5.34924
lhand -25.9061 35.1938
lfingers 7.12502
lthumb 0.636395 425.173
rfemur 16.9949 5.06855 31.1081
rtibia 7.6355
rfoot -23.5541 -21.0641
rtoes 3.45971
lfemur -27.058 -19.6896 -19.8601
ltibia 14.2963
lfoot -13.1203 2.63841
ltoes -12.0965
563
root -12.3728 16.0502 2.1331 155.661 -83.6068 -145.614
lowerback 4.58586 3.44768 -0.206988
upperback -11.9823 4.47749 1.96188
thorax -16.0969 2.09617 1.55555
lowerneck -20.9573 -3.79824 -2.98415
upperneck 26.2114 -3.78373 -3.00766
head 12.1303 -2.52031 -1.27976
rclavicle -1.07344e-014 1.78906e-015
rhumerus -34.0685 27.1142 -81.7096
rradius 47.2363
rwrist 13.4693
rhand -21.6187 -22.132
rfingers 7.12502
rthumb 4.77698 -412.058
lclavicle -1.07344e-014 1.78906e-015
lhumerus -54.4831 11.0555 62.3061
lradius 29.6039
lwrist -6.11778
lhand -25.8619 35.6995
lfingers 7.12502
lthumb 0.67914 425.678
rfemur 17.2257 5.91319 31.3492
rtibia 6.93438
rfoot -25.372 -21.3263
rtoes 2.0022
lfemur -27.2329 -19.9266 -19.4731
ltibia 14.0492
lfoot -14.1908 3.08629
ltoes -11.6399
564
root -12.2762 16.0349 2.12355 160.479 -82.8458 -150.471
lowerback 4.58896 3.55966 0.149314
upperback -11.966 4.64573 1.74213
thorax -16.026 2.11114 1.08127
lowerneck -20.8213 -3.53825 -2.41936
upperneck 26.3059 -3.62927 -2.97872
head 12.1248 -2.3938 -1.33624
rclavicle 2.28602e-014 2.54444e-014
rhumerus -36.0845 26.3704 -83.0779
rradius 46.9683
rwrist 12.8762
rhand -21.3259 -21.631
rfingers 7.12502
rthumb 5.05967 -411.551
lclavicle 2.28602e-014 2.54444e-014
lhumerus -54.5226 11.2418 61.8025
lradius 28.8967
lwrist -6.64522
lhand -26.1682 35.7486
lfingers 7.12502
lthumb 0.383285 425.728
rfemur 17.511 6.75877 31.7042
rtibia 6.10529
rfoot -26.2869 -22.175
rtoes -2.11578
lfemur -27.4706 -19.9455 -19.0688
ltibia 13.9607
lfoot -15.0319 3.47616
ltoes -10.5973
565
root -12.1735 16.0173 2.11415 163.154 -82.0241 -153.214
lowerback 4.65888 3.65566 0.696943
upperback -11.9714 4.82088 1.55716
thorax -16.0092 2.10775 0.536623
lowerneck -20.8181 -3.23359 -1.99773
upperneck 26.5988 -3.41313 -2.76575
head 12.2334 -2.23168 -1.29894
rclavicle 2.68856e-014 1.90833e-014
rhumerus -37.8072 25.5308 -84.1615
rradius 46.5565
rwrist 12.5905
rhand -20.6982 -21.3612
rfingers 7.12502
rthumb 5.66577 -411.265
lclavicle 2.68856e-014 1.90833e-014
lhumerus -54.5308 11.7531 61.1121
lradius 28.4104
lwrist -7.04983
lhand -26.6295 35.5773
lfingers 7.12502
lthumb -0.0622247 425.557
rfemur 17.6637 7.23483 32.0421
rtibia 5.4149
rfoot -26.681 -23.039
rtoes -5.19776
lfemur -27.6492 -19.936 -18.5479
ltibia 13.8372
lfoot -15.9709 3.67955
ltoes -9.82908
566
root -12.0623 15.9991 2.10498 165.227 -81.2249 -155.391
lowerback 4.7782 3.75944 1.29504
upperback -11.9699 5.01272 1.33627
thorax -16.0044 2.10354 -0.0811366
lowerneck -20.8211 -2.95889 -1.59107
upperneck 27.0151 -3.2423 -2.55014
head 12.3939 -2.09261 -1.26875
rclavicle -3.54582e-014 -2.3059e-014
rhumerus -39.2121 24.4095 -84.9229
rradius 45.9436
rwrist 12.5055
rhand -20.2384 -21.182
rfingers 7.12502
rthumb 6.10968 -411.074
lclavicle -3.54582e-014 -2.3059e-014
lhumerus -54.4363 11.6146 61.0337
lradius 28.4755
lwrist -6.31578
lhand -27.3428 35.409
lfingers 7.12502
lthumb -0.751137 425.387
rfemur 17.7837 7.62589 32.3195
rtibia 4.77584
rfoot -26.9869 -23.7791
rtoes -6.8606
lfemur -27.819 -19.8432 -18.0535
ltibia 13.7278
lfoot -16.8494 3.81582
ltoes -9.72759
567
root -11.9453 15.9813 2.09239 167.6 -80.4379 -157.899
lowerback 4.83753 3.85099 1.68909
upperback -11.9007 5.1671 1.14488
thorax -15.8951 2.11442 -0.541126
lowerneck -20.7668 -2.72082 -1.01254
upperneck 27.2596 -3.05757 -2.74669
head 12.465 -1.98337 -1.41564
rclavicle 3.31473e-014 4.47266e-015
rhumerus -40.2879 23.084 -85.3222
rradius 45.2574
rwrist 12.5145
rhand -19.9774 -20.869
rfingers 7.12502
rthumb 6.36165 -410.753
lclavicle 3.31473e-014 4.47266e-015
lhumerus -54.2814 11.0349 61.478
lradius 28.9962
lwrist -4.89561
lhand -27.5347 35.3384
lfingers 7.12502
lthumb -0.936514 425.316
rfemur 17.9559 8.2947 32.5966
rtibia 4.12366
rfoot -27.6222 -24.3464
rtoes -8.16381
lfemur -27.9645 -19.8084 -17.6272
ltibia 13.6089
lfoot -17.7167 4.31536
ltoes -10.5908
568
root -11.8213 15.9617 2.07783 170.49 -79.6312 -160.933
lowerback 4.89159 3.91673 1.83895
upperback -11.8153 5.26337 1.02079
thorax -15.7929 2.13457 -0.780206
lowerneck -20.7962 -2.42701 -0.641931
upperneck 27.5583 -2.72796 -2.90807
head 12.5851 -1.82706 -1.49439
rclavicle 1.9953e-014 1.28216e-014
rhumerus -41.2638 22.1866 -85.5392
rradius 44.6571
rwrist 12.3217
rhand -19.7134 -20.8569
rfingers 7.12502
rthumb 6.61654 -410.734
lclavicle 1.9953e-014 1.28216e-014
lhumerus -54.126 10.1002 62.3722
lradius 29.7863
lwrist -3.09706
lhand -27.0285 35.7306
lfingers 7.12502
lthumb -0.447636 425.71
rfemur 18.0659 9.10256 32.7158
rtibia 3.54775
rfoot -28.4926 -24.5694
rtoes -9.9522
lfemur -28.0266 -19.981 -17.2821
ltibia 13.3364
lfoot -18.872 4.38161
ltoes -9.63703
